<svg width="30" height="25" viewBox="0 0 30 25" fill="none" xmlns="http://www.w3.org/2000/svg">
<path d="M12.7875 12.625C13.2634 11.5792 13.9407 10.6375 14.7806 9.85349C15.6205 9.06951 16.6067 8.45868 17.6827 8.05588C18.7588 7.65309 19.9036 7.46623 21.0519 7.50597C22.2002 7.54571 23.3294 7.81128 24.375 8.2875C25.4208 8.7634 26.3625 9.44066 27.1465 10.2806C27.9305 11.1205 28.5413 12.1067 28.9441 13.1827C29.3469 14.2588 29.5338 15.4036 29.494 16.5519C29.4543 17.7002 29.1887 18.8294 28.7125 19.875C28.0194 21.4051 26.8994 22.7026 25.487 23.6117C24.0746 24.5208 22.4297 25.0029 20.75 25C17.375 25 14.2875 23.05 12.8375 20H0.75V17.5C0.825 16.075 1.8 14.9125 3.675 13.975C5.55 13.0375 7.9 12.55 10.75 12.5C11.4625 12.5 12.1375 12.5625 12.7875 12.625ZM10.75 0C12.15 0.0375 13.325 0.525 14.2625 1.4625C15.2 2.4 15.6625 3.575 15.6625 5C15.6625 6.425 15.2 7.6 14.2625 8.5375C13.325 9.475 12.15 9.9375 10.75 9.9375C9.35 9.9375 8.175 9.475 7.2375 8.5375C6.3 7.6 5.8375 6.425 5.8375 5C5.8375 3.575 6.3 2.4 7.2375 1.4625C8.175 0.525 9.35 0.0375 10.75 0ZM20.75 22.5C22.4076 22.5 23.9973 21.8415 25.1694 20.6694C26.3415 19.4973 27 17.9076 27 16.25C27 14.5924 26.3415 13.0027 25.1694 11.8306C23.9973 10.6585 22.4076 10 20.75 10C19.0924 10 17.5027 10.6585 16.3306 11.8306C15.1585 13.0027 14.5 14.5924 14.5 16.25C14.5 17.9076 15.1585 19.4973 16.3306 20.6694C17.5027 21.8415 19.0924 22.5 20.75 22.5ZM19.5 12.5H21.375V16.025L24.425 17.7875L23.4875 19.4125L19.5 17.1125V12.5Z" fill="white"/>
</svg>
