<svg width="16" height="13" viewBox="0 0 16 13" fill="#000000" xmlns="http://www.w3.org/2000/svg">
<path d="M1.33334 1.51332L2.18667 0.666656L13.3333 11.8133L12.4867 12.6667L10.4333 10.6133C9.66667 10.8667 8.85334 11 8.00001 11C4.66667 11 1.82001 8.92666 0.666672 5.99999C1.12667 4.82666 1.86001 3.79332 2.79334 2.97332L1.33334 1.51332ZM8.00001 3.99999C8.53044 3.99999 9.03915 4.2107 9.41422 4.58578C9.78929 4.96085 10 5.46956 10 5.99999C10.0003 6.22703 9.96202 6.45248 9.88667 6.66666L7.33334 4.11332C7.54752 4.03798 7.77296 3.99965 8.00001 3.99999ZM8.00001 0.99999C11.3333 0.99999 14.18 3.07332 15.3333 5.99999C14.7892 7.38213 13.8646 8.5818 12.6667 9.45999L11.72 8.50666C12.6419 7.86891 13.3855 7.00603 13.88 5.99999C13.341 4.89995 12.5043 3.97317 11.4649 3.32499C10.4254 2.67682 9.22498 2.33324 8.00001 2.33332C7.27334 2.33332 6.56001 2.45332 5.89334 2.66666L4.86667 1.64666C5.82667 1.23332 6.88667 0.99999 8.00001 0.99999ZM2.12001 5.99999C2.65896 7.10003 3.49572 8.02681 4.53516 8.67499C5.5746 9.32316 6.77503 9.66674 8.00001 9.66666C8.46001 9.66666 8.91334 9.61999 9.33334 9.52666L7.81334 7.99999C7.34945 7.95027 6.91655 7.74324 6.58665 7.41334C6.25675 7.08344 6.04973 6.65055 6.00001 6.18666L3.73334 3.91332C3.07334 4.47999 2.52001 5.18666 2.12001 5.99999Z" fill="#575962"/>
</svg>
