<svg width="24" height="27" viewBox="0 0 24 27" fill="none" xmlns="http://www.w3.org/2000/svg">
<path d="M23.25 6.125C23.25 8.5375 21.2875 10.5 18.875 10.5C16.4625 10.5 14.5 8.5375 14.5 6.125C14.5 3.7125 16.4625 1.75 18.875 1.75C21.2875 1.75 23.25 3.7125 23.25 6.125ZM20.75 12.7375C20.125 12.9 19.5 13 18.875 13C17.0527 12.9967 15.3059 12.2713 14.0173 10.9827C12.7287 9.69411 12.0033 7.94735 12 6.125C12 4.2875 12.725 2.625 13.875 1.3875C13.6482 1.10942 13.3621 0.885462 13.0378 0.731929C12.7134 0.578396 12.3589 0.499162 12 0.499999C10.625 0.499999 9.5 1.625 9.5 3V3.3625C5.7875 4.4625 3.25 7.875 3.25 11.75V19.25L0.75 21.75V23H23.25V21.75L20.75 19.25V12.7375ZM12 26.75C13.3875 26.75 14.5 25.6375 14.5 24.25H9.5C9.5 24.913 9.76339 25.5489 10.2322 26.0178C10.7011 26.4866 11.337 26.75 12 26.75Z" fill="white"/>
</svg>
