<svg width="24" height="27" viewBox="0 0 24 27" fill="none" xmlns="http://www.w3.org/2000/svg">
<path fill-rule="evenodd" clip-rule="evenodd" d="M18.875 10.5C21.2875 10.5 23.25 8.5375 23.25 6.125C23.25 3.7125 21.2875 1.75 18.875 1.75C16.4625 1.75 14.5 3.7125 14.5 6.125C14.5 8.5375 16.4625 10.5 18.875 10.5ZM18.875 13C19.5 13 20.125 12.9 20.75 12.7375V19.25L23.25 21.75V23H0.75V21.75L3.25 19.25V11.75C3.25 7.875 5.7875 4.4625 9.5 3.3625V3C9.5 1.625 10.625 0.499999 12 0.499999C12.3589 0.499162 12.7134 0.578396 13.0378 0.731929C13.3621 0.885462 13.6482 1.10942 13.875 1.3875C12.725 2.625 12 4.2875 12 6.125C12.0033 7.94735 12.7287 9.69411 14.0173 10.9827C15.3059 12.2713 17.0527 12.9967 18.875 13ZM14.5 24.25C14.5 25.6375 13.3875 26.75 12 26.75C11.337 26.75 10.7011 26.4866 10.2322 26.0178C9.76339 25.5489 9.5 24.913 9.5 24.25H14.5ZM17 6L19 4H20V9H19V5.41421L17.7071 6.70711L17 6Z" fill="white"/>
</svg>
