<svg width="882" height="566" viewBox="0 0 882 566" fill="none" xmlns="http://www.w3.org/2000/svg">
<path d="M389.752 0C306.216 4.86179 296.042 59.6855 236.851 106.39C189.771 143.537 117.88 155.26 79.3582 198.095C33.9708 248.565 -5.69819 307.358 0.675814 369.012C7.3243 433.321 16.3725 517.516 90.5833 544.78C167.844 573.164 255.288 530.386 340.215 536.185C407.546 540.782 474.94 570.563 542.205 565.401C611.772 560.063 819.329 550.778 838.474 501.368C876.108 404.246 880.529 394.837 881.989 327.137C883.471 258.401 734.832 210.8 734.833 135.448C714.682 61.7758 651.859 104.171 603.408 72.2057C539.376 29.9606 566.725 11.4635 389.752 0Z" fill="#5223D5" fill-opacity="0.11"/>
<path d="M49.8989 436.005C49.8989 421.221 62.0179 386.137 76.9676 386.137C91.9172 386.137 104.036 421.221 104.036 436.005C104.036 443.105 101.184 449.915 96.108 454.935C91.0317 459.955 84.1466 462.776 76.9676 462.776C69.7885 462.776 62.9035 459.955 57.8271 454.935C52.7507 449.915 49.8989 443.105 49.8989 436.005Z" fill="url(#paint0_radial_320_3)"/>
<path d="M76.9675 500.958C76.8396 500.958 76.717 500.907 76.6266 500.818C76.5362 500.729 76.4854 500.607 76.4854 500.481V404.355C76.4854 404.229 76.5362 404.108 76.6266 404.018C76.717 403.929 76.8396 403.879 76.9675 403.879C77.0954 403.879 77.218 403.929 77.3084 404.018C77.3988 404.108 77.4496 404.229 77.4496 404.355V500.481C77.4496 500.607 77.3988 500.729 77.3084 500.818C77.218 500.907 77.0954 500.958 76.9675 500.958Z" fill="#3F3D56"/>
<path d="M76.9674 446.983C76.873 446.983 76.7807 446.955 76.7019 446.904C76.6232 446.853 76.5614 446.78 76.5242 446.694C76.4871 446.608 76.4762 446.513 76.493 446.422C76.5098 446.33 76.5534 446.245 76.6185 446.177L90.3787 431.897C90.4224 431.851 90.4747 431.815 90.5326 431.79C90.5905 431.764 90.6528 431.75 90.7161 431.749C90.7794 431.747 90.8424 431.758 90.9014 431.781C90.9605 431.803 91.0145 431.837 91.0603 431.88C91.1061 431.924 91.1429 431.975 91.1685 432.033C91.1942 432.09 91.2081 432.151 91.2096 432.214C91.2112 432.277 91.2002 432.339 91.1774 432.397C91.1546 432.456 91.1203 432.509 91.0767 432.554L77.3165 446.835C77.2715 446.882 77.2173 446.919 77.1573 446.944C77.0973 446.97 77.0327 446.983 76.9674 446.983Z" fill="#3F3D56"/>
<path d="M76.9674 422.906C76.847 422.906 76.7309 422.862 76.6422 422.781L64.7508 412.029C64.7038 411.986 64.6658 411.935 64.6388 411.879C64.6118 411.822 64.5964 411.76 64.5935 411.698C64.5906 411.635 64.6002 411.573 64.6218 411.514C64.6434 411.455 64.6765 411.4 64.7193 411.354C64.7621 411.308 64.8138 411.27 64.8712 411.244C64.9287 411.217 64.9909 411.202 65.0543 411.2C65.1176 411.197 65.1809 411.207 65.2405 411.228C65.3 411.25 65.3547 411.283 65.4014 411.325L77.2929 422.077C77.3646 422.142 77.4148 422.227 77.437 422.321C77.4591 422.414 77.4521 422.512 77.4169 422.602C77.3817 422.691 77.32 422.768 77.2397 422.823C77.1595 422.877 77.0646 422.906 76.9674 422.906Z" fill="#3F3D56"/>
<path d="M58.0585 500.911C58.1041 500.945 58.1523 500.977 58.1985 501.011H97.398C98.1661 497.933 98.4373 494.852 97.29 492.177C95.6552 488.364 90.8174 485.984 86.9712 487.621C86.0599 488.02 85.2661 488.641 84.6645 489.426C83.1614 486.765 80.4651 484.759 77.353 484.761C73.4539 484.764 70.2121 487.917 69.1541 491.56C67.4506 488.716 64.0856 486.729 60.7966 487.584C55.2956 489.014 53.558 497.471 58.0585 500.911Z" fill="url(#paint1_linear_320_3)"/>
<path d="M728.763 410.836C728.763 390.062 745.791 340.765 766.797 340.765C787.803 340.765 804.832 390.062 804.832 410.836C804.832 420.813 800.825 430.38 793.692 437.435C786.559 444.489 776.885 448.452 766.797 448.452C756.71 448.452 747.036 444.489 739.903 437.435C732.77 430.38 728.763 420.813 728.763 410.836Z" fill="#F9A826"/>
<path d="M766.798 501.887C766.675 501.887 766.558 501.839 766.472 501.754C766.386 501.669 766.337 501.553 766.337 501.432V366.364C766.337 366.243 766.386 366.127 766.472 366.042C766.558 365.956 766.675 365.909 766.798 365.909C766.92 365.909 767.037 365.956 767.123 366.042C767.21 366.127 767.258 366.243 767.258 366.364V501.432C767.258 501.553 767.21 501.669 767.123 501.754C767.037 501.839 766.92 501.887 766.798 501.887Z" fill="#3F3D56"/>
<path d="M766.797 426.046C766.707 426.046 766.619 426.02 766.544 425.971C766.469 425.922 766.41 425.852 766.374 425.77C766.339 425.688 766.328 425.598 766.344 425.51C766.36 425.422 766.402 425.341 766.464 425.277L785.799 405.211C785.883 405.123 785.999 405.072 786.121 405.07C786.243 405.067 786.361 405.112 786.45 405.195C786.538 405.278 786.59 405.393 786.593 405.514C786.596 405.635 786.55 405.752 786.466 405.839L767.131 425.905C767.088 425.95 767.036 425.985 766.979 426.009C766.922 426.034 766.86 426.046 766.797 426.046Z" fill="#3F3D56"/>
<path d="M766.797 392.216C766.682 392.216 766.572 392.173 766.487 392.096L749.778 376.988C749.688 376.906 749.634 376.793 749.628 376.672C749.623 376.551 749.666 376.433 749.749 376.344C749.831 376.255 749.946 376.202 750.068 376.197C750.19 376.191 750.309 376.234 750.399 376.315L767.108 391.424C767.177 391.486 767.225 391.567 767.246 391.656C767.267 391.746 767.26 391.839 767.227 391.925C767.193 392.011 767.134 392.084 767.058 392.136C766.981 392.188 766.89 392.216 766.797 392.216Z" fill="#3F3D56"/>
<path d="M730.472 501.745C730.56 501.812 730.653 501.872 730.742 501.938H806.329C807.81 496.004 808.333 490.063 806.121 484.903C802.969 477.551 793.64 472.962 786.224 476.119C784.466 476.888 782.936 478.085 781.776 479.6C778.877 474.469 773.678 470.6 767.677 470.605C760.159 470.61 753.908 476.691 751.868 483.714C748.583 478.231 742.094 474.398 735.752 476.047C725.145 478.804 721.794 495.112 730.472 501.745Z" fill="#E6E6E6"/>
<path d="M193.55 139.432C193.55 130.081 201.196 122.501 210.628 122.501H698.841C708.273 122.501 715.919 130.081 715.919 139.432V393.397C715.919 402.748 708.273 410.328 698.841 410.328H210.628C201.196 410.328 193.55 402.748 193.55 393.397V139.432Z" fill="white"/>
<path d="M247.796 123.541H209.517C205.837 123.545 202.309 124.991 199.707 127.563C197.104 130.134 195.641 133.622 195.638 137.259V178.273C195.148 178.245 194.659 178.201 194.177 178.144C185.108 177.201 176.486 173.773 169.284 168.246C162.081 162.72 156.584 155.314 153.411 146.865C150.239 138.416 149.518 129.26 151.33 120.427C153.142 111.595 157.414 103.439 163.666 96.8776C169.917 90.3166 177.898 85.6121 186.71 83.2943C195.522 80.9766 204.814 81.1378 213.538 83.7598C222.262 86.3819 230.071 91.3604 236.086 98.1342C242.1 104.908 246.08 113.208 247.577 122.097C247.657 122.574 247.731 123.058 247.796 123.541Z" fill="url(#paint2_linear_320_3)"/>
<path d="M700.533 122.501H208.936C204.856 122.505 200.946 124.115 198.061 126.976C195.177 129.838 193.555 133.718 193.55 137.764V395.064C193.555 399.111 195.177 402.991 198.061 405.852C200.946 408.714 204.856 410.323 208.936 410.328H700.533C704.612 410.323 708.523 408.714 711.407 405.852C714.292 402.991 715.914 399.111 715.919 395.064V137.764C715.914 133.718 714.292 129.838 711.407 126.976C708.523 124.115 704.612 122.505 700.533 122.501ZM714.453 395.064C714.45 398.726 712.982 402.237 710.373 404.826C707.763 407.415 704.224 408.871 700.533 408.874H208.936C205.245 408.871 201.706 407.415 199.096 404.826C196.486 402.237 195.019 398.726 195.015 395.064V137.764C195.019 134.103 196.486 130.592 199.096 128.003C201.706 125.414 205.245 123.958 208.936 123.954H700.533C704.224 123.958 707.763 125.414 710.373 128.003C712.982 130.592 714.45 134.103 714.453 137.764V395.064Z" fill="#3F3D56"/>
<path d="M675.005 164.33H232.455C232.261 164.33 232.075 164.278 231.938 164.184C231.8 164.091 231.723 163.964 231.723 163.832C231.723 163.7 231.8 163.574 231.938 163.48C232.075 163.387 232.261 163.334 232.455 163.334H675.005C675.199 163.334 675.385 163.387 675.522 163.48C675.659 163.574 675.736 163.7 675.736 163.832C675.736 163.964 675.659 164.091 675.522 164.184C675.385 164.278 675.199 164.33 675.005 164.33Z" fill="#3F3D56"/>
<path d="M675.005 177.278H232.455C232.261 177.278 232.075 177.173 231.938 176.986C231.8 176.799 231.723 176.546 231.723 176.282C231.723 176.017 231.8 175.764 231.938 175.577C232.075 175.391 232.261 175.286 232.455 175.286H675.005C675.199 175.286 675.385 175.391 675.522 175.577C675.659 175.764 675.736 176.017 675.736 176.282C675.736 176.546 675.659 176.799 675.522 176.986C675.385 177.173 675.199 177.278 675.005 177.278Z" fill="#2F2E41" fill-opacity="0.42"/>
<path d="M675.005 190.225H232.455C232.261 190.225 232.075 190.12 231.938 189.933C231.8 189.746 231.723 189.493 231.723 189.229C231.723 188.965 231.8 188.711 231.938 188.525C232.075 188.338 232.261 188.233 232.455 188.233H675.005C675.199 188.233 675.385 188.338 675.522 188.525C675.659 188.711 675.736 188.965 675.736 189.229C675.736 189.493 675.659 189.746 675.522 189.933C675.385 190.12 675.199 190.225 675.005 190.225Z" fill="#2F2E41" fill-opacity="0.42"/>
<path d="M675.005 203.172H232.455C232.261 203.172 232.075 203.067 231.938 202.88C231.8 202.694 231.723 202.44 231.723 202.176C231.723 201.912 231.8 201.659 231.938 201.472C232.075 201.285 232.261 201.18 232.455 201.18H675.005C675.199 201.18 675.385 201.285 675.522 201.472C675.659 201.659 675.736 201.912 675.736 202.176C675.736 202.44 675.659 202.694 675.522 202.88C675.385 203.067 675.199 203.172 675.005 203.172Z" fill="#2F2E41" fill-opacity="0.42"/>
<path d="M675.005 215.123H232.455C232.261 215.123 232.075 215.071 231.938 214.977C231.8 214.884 231.723 214.757 231.723 214.625C231.723 214.493 231.8 214.367 231.938 214.273C232.075 214.18 232.261 214.127 232.455 214.127H675.005C675.199 214.127 675.385 214.18 675.522 214.273C675.659 214.367 675.736 214.493 675.736 214.625C675.736 214.757 675.659 214.884 675.522 214.977C675.385 215.071 675.199 215.123 675.005 215.123Z" fill="#2F2E41" fill-opacity="0.42"/>
<path d="M675.005 228.071H232.455C232.261 228.071 232.075 228.018 231.938 227.925C231.8 227.831 231.723 227.705 231.723 227.573C231.723 227.441 231.8 227.314 231.938 227.22C232.075 227.127 232.261 227.075 232.455 227.075H675.005C675.199 227.075 675.385 227.127 675.522 227.22C675.659 227.314 675.736 227.441 675.736 227.573C675.736 227.705 675.659 227.831 675.522 227.925C675.385 228.018 675.199 228.071 675.005 228.071Z" fill="#2F2E41" fill-opacity="0.42"/>
<path d="M675.005 242.014H232.455C232.261 242.014 232.075 241.909 231.938 241.722C231.8 241.535 231.723 241.282 231.723 241.018C231.723 240.754 231.8 240.5 231.938 240.314C232.075 240.127 232.261 240.022 232.455 240.022H675.005C675.199 240.022 675.385 240.127 675.522 240.314C675.659 240.5 675.736 240.754 675.736 241.018C675.736 241.282 675.659 241.535 675.522 241.722C675.385 241.909 675.199 242.014 675.005 242.014Z" fill="#2F2E41" fill-opacity="0.42"/>
<path d="M675.005 254.961H232.455C232.261 254.961 232.075 254.909 231.938 254.815C231.8 254.722 231.723 254.595 231.723 254.463C231.723 254.331 231.8 254.204 231.938 254.111C232.075 254.018 232.261 253.965 232.455 253.965H675.005C675.199 253.965 675.385 254.018 675.522 254.111C675.659 254.204 675.736 254.331 675.736 254.463C675.736 254.595 675.659 254.722 675.522 254.815C675.385 254.909 675.199 254.961 675.005 254.961Z" fill="#2F2E41" fill-opacity="0.42"/>
<path d="M675.005 267.908H232.455C232.261 267.908 232.075 267.856 231.938 267.762C231.8 267.669 231.723 267.542 231.723 267.41C231.723 267.278 231.8 267.152 231.938 267.058C232.075 266.965 232.261 266.912 232.455 266.912H675.005C675.199 266.912 675.385 266.965 675.522 267.058C675.659 267.152 675.736 267.278 675.736 267.41C675.736 267.542 675.659 267.669 675.522 267.762C675.385 267.856 675.199 267.908 675.005 267.908Z" fill="#2F2E41" fill-opacity="0.42"/>
<path d="M675.005 280.855H232.455C232.261 280.855 232.075 280.803 231.938 280.71C231.8 280.616 231.723 280.49 231.723 280.357C231.723 280.225 231.8 280.099 231.938 280.005C232.075 279.912 232.261 279.86 232.455 279.86H675.005C675.199 279.86 675.385 279.912 675.522 280.005C675.659 280.099 675.736 280.225 675.736 280.357C675.736 280.49 675.659 280.616 675.522 280.71C675.385 280.803 675.199 280.855 675.005 280.855Z" fill="#2F2E41" fill-opacity="0.42"/>
<path d="M675.005 293.803H232.455C232.261 293.803 232.075 293.75 231.938 293.657C231.8 293.563 231.723 293.437 231.723 293.305C231.723 293.173 231.8 293.046 231.938 292.953C232.075 292.859 232.261 292.807 232.455 292.807H675.005C675.199 292.807 675.385 292.859 675.522 292.953C675.659 293.046 675.736 293.173 675.736 293.305C675.736 293.437 675.659 293.563 675.522 293.657C675.385 293.75 675.199 293.803 675.005 293.803Z" fill="#2F2E41" fill-opacity="0.42"/>
<path d="M675.005 307.746H232.455C232.261 307.746 232.075 307.641 231.938 307.454C231.8 307.267 231.723 307.014 231.723 306.75C231.723 306.486 231.8 306.232 231.938 306.046C232.075 305.859 232.261 305.754 232.455 305.754H675.005C675.199 305.754 675.385 305.859 675.522 306.046C675.659 306.232 675.736 306.486 675.736 306.75C675.736 307.014 675.659 307.267 675.522 307.454C675.385 307.641 675.199 307.746 675.005 307.746Z" fill="#2F2E41" fill-opacity="0.42"/>
<path d="M675.005 320.693H232.455C232.261 320.693 232.075 320.641 231.938 320.547C231.8 320.454 231.723 320.327 231.723 320.195C231.723 320.063 231.8 319.936 231.938 319.843C232.075 319.75 232.261 319.697 232.455 319.697H675.005C675.199 319.697 675.385 319.75 675.522 319.843C675.659 319.936 675.736 320.063 675.736 320.195C675.736 320.327 675.659 320.454 675.522 320.547C675.385 320.641 675.199 320.693 675.005 320.693Z" fill="#2F2E41" fill-opacity="0.42"/>
<path d="M675.005 333.64H232.455C232.261 333.64 232.075 333.588 231.938 333.495C231.8 333.401 231.723 333.274 231.723 333.142C231.723 333.01 231.8 332.884 231.938 332.79C232.075 332.697 232.261 332.644 232.455 332.644H675.005C675.199 332.644 675.385 332.697 675.522 332.79C675.659 332.884 675.736 333.01 675.736 333.142C675.736 333.274 675.659 333.401 675.522 333.495C675.385 333.588 675.199 333.64 675.005 333.64Z" fill="#2F2E41" fill-opacity="0.42"/>
<path d="M675.005 346.588H232.455C232.261 346.588 232.075 346.535 231.938 346.442C231.8 346.348 231.723 346.222 231.723 346.09C231.723 345.958 231.8 345.831 231.938 345.738C232.075 345.644 232.261 345.592 232.455 345.592H675.005C675.199 345.592 675.385 345.644 675.522 345.738C675.659 345.831 675.736 345.958 675.736 346.09C675.736 346.222 675.659 346.348 675.522 346.442C675.385 346.535 675.199 346.588 675.005 346.588Z" fill="#2F2E41" fill-opacity="0.42"/>
<path d="M675.005 359.535H232.455C232.261 359.535 232.075 359.482 231.938 359.389C231.8 359.296 231.723 359.169 231.723 359.037C231.723 358.905 231.8 358.778 231.938 358.685C232.075 358.591 232.261 358.539 232.455 358.539H675.005C675.199 358.539 675.385 358.591 675.522 358.685C675.659 358.778 675.736 358.905 675.736 359.037C675.736 359.169 675.659 359.296 675.522 359.389C675.385 359.482 675.199 359.535 675.005 359.535Z" fill="#2F2E41" fill-opacity="0.42"/>
<path d="M675.005 373.478H232.455C232.261 373.478 232.075 373.373 231.938 373.186C231.8 373 231.723 372.746 231.723 372.482C231.723 372.218 231.8 371.965 231.938 371.778C232.075 371.591 232.261 371.486 232.455 371.486H675.005C675.199 371.486 675.385 371.591 675.522 371.778C675.659 371.965 675.736 372.218 675.736 372.482C675.736 372.746 675.659 373 675.522 373.186C675.385 373.373 675.199 373.478 675.005 373.478Z" fill="#2F2E41" fill-opacity="0.42"/>
<path d="M307.065 379.454C306.798 379.454 306.543 379.377 306.355 379.24C306.166 379.102 306.06 378.916 306.06 378.723V138.171C306.06 137.977 306.166 137.791 306.355 137.654C306.543 137.517 306.798 137.44 307.065 137.44C307.331 137.44 307.587 137.517 307.775 137.654C307.964 137.791 308.069 137.977 308.069 138.171V378.723C308.069 378.916 307.964 379.102 307.775 379.24C307.587 379.377 307.331 379.454 307.065 379.454Z" fill="#3F3D56"/>
<path d="M507.474 379.454C507.074 379.454 506.691 379.377 506.408 379.24C506.125 379.102 505.967 378.916 505.967 378.723V138.171C505.967 137.977 506.125 137.791 506.408 137.654C506.691 137.517 507.074 137.44 507.474 137.44C507.873 137.44 508.256 137.517 508.539 137.654C508.822 137.791 508.98 137.977 508.98 138.171V378.723C508.98 378.916 508.822 379.102 508.539 379.24C508.256 379.377 507.873 379.454 507.474 379.454Z" fill="#3F3D56"/>
<path d="M607.929 379.454C607.796 379.454 607.668 379.377 607.574 379.24C607.48 379.102 607.427 378.916 607.427 378.723V138.171C607.427 137.977 607.48 137.791 607.574 137.654C607.668 137.517 607.796 137.44 607.929 137.44C608.062 137.44 608.19 137.517 608.284 137.654C608.378 137.791 608.431 137.977 608.431 138.171V378.723C608.431 378.916 608.378 379.102 608.284 379.24C608.19 379.377 608.062 379.454 607.929 379.454Z" fill="#3F3D56"/>
<path d="M286.835 227.075H244.921C243.553 227.074 242.241 226.856 241.273 226.469C240.306 226.083 239.761 225.558 239.76 225.011V205.236C239.761 204.689 240.306 204.164 241.273 203.777C242.241 203.39 243.553 203.173 244.921 203.172H286.835C288.203 203.173 289.515 203.39 290.483 203.777C291.451 204.164 291.995 204.689 291.997 205.236V225.011C291.995 225.558 291.451 226.083 290.483 226.469C289.515 226.856 288.203 227.074 286.835 227.075Z" fill="#89F457"/>
<path d="M377.443 266.912H337.142C335.826 266.912 334.565 266.685 333.634 266.282C332.704 265.879 332.18 265.332 332.179 264.763V244.163C332.18 243.594 332.704 243.047 333.634 242.644C334.565 242.241 335.826 242.014 337.142 242.014H377.443C378.759 242.014 380.021 242.241 380.951 242.644C381.882 243.047 382.405 243.594 382.406 244.163V264.763C382.405 265.333 381.882 265.879 380.951 266.282C380.021 266.685 378.759 266.912 377.443 266.912Z" fill="#89F457"/>
<path d="M578.354 345.592H538.053C536.737 345.59 535.475 345.119 534.545 344.281C533.615 343.442 533.091 342.306 533.09 341.12V298.274C533.091 297.089 533.615 295.952 534.545 295.114C535.475 294.276 536.737 293.804 538.053 293.803H578.354C579.67 293.804 580.932 294.276 581.862 295.114C582.793 295.952 583.316 297.089 583.317 298.274V341.12C583.316 342.306 582.793 343.442 581.862 344.281C580.932 345.119 579.67 345.59 578.354 345.592Z" fill="#06C9D9"/>
<path d="M476.894 319.697H436.593C435.277 319.695 434.015 318.988 433.085 317.73C432.154 316.473 431.631 314.768 431.63 312.99V248.721C431.631 246.943 432.154 245.238 433.085 243.98C434.015 242.723 435.277 242.016 436.593 242.014H476.894C478.21 242.016 479.472 242.723 480.402 243.98C481.333 245.238 481.856 246.943 481.857 248.721V312.99C481.856 314.768 481.333 316.473 480.402 317.73C479.472 318.988 478.21 319.695 476.894 319.697Z" fill="#89F457"/>
<path d="M669.769 331.648H629.467C628.151 331.647 626.89 331.294 625.959 330.665C625.029 330.036 624.506 329.184 624.504 328.295V296.16C624.506 295.271 625.029 294.419 625.959 293.79C626.89 293.161 628.151 292.808 629.467 292.807H669.769C671.085 292.808 672.346 293.161 673.276 293.79C674.207 294.419 674.73 295.271 674.732 296.16V328.295C674.73 329.184 674.207 330.036 673.276 330.665C672.346 331.294 671.085 331.647 669.769 331.648Z" fill="#89F457"/>
<path d="M669.769 227.075H629.467C628.151 227.074 626.89 226.72 625.959 226.091C625.029 225.463 624.506 224.61 624.504 223.721V191.587C624.506 190.697 625.029 189.845 625.959 189.216C626.89 188.588 628.151 188.234 629.467 188.233H669.769C671.085 188.234 672.346 188.588 673.276 189.216C674.207 189.845 674.73 190.697 674.732 191.587V223.721C674.73 224.61 674.207 225.463 673.276 226.091C672.346 226.72 671.085 227.074 669.769 227.075Z" fill="#FC8936"/>
<path d="M669.769 279.86H629.467C628.151 279.858 626.89 279.496 625.959 278.851C625.029 278.206 624.506 277.332 624.504 276.42V243.461C624.506 242.55 625.029 241.675 625.959 241.03C626.89 240.386 628.151 240.023 629.467 240.022H669.769C671.085 240.023 672.346 240.386 673.276 241.03C674.207 241.675 674.73 242.55 674.732 243.461V276.42C674.73 277.332 674.207 278.206 673.276 278.851C672.346 279.496 671.085 279.858 669.769 279.86Z" fill="#06C9D9"/>
<path d="M476.894 214.127H436.593C435.277 214.126 434.015 213.791 433.085 213.194C432.154 212.598 431.631 211.789 431.63 210.946V180.459C431.631 179.616 432.154 178.807 433.085 178.21C434.015 177.614 435.277 177.279 436.593 177.278H476.894C478.21 177.279 479.472 177.614 480.402 178.21C481.333 178.807 481.856 179.616 481.857 180.459V210.946C481.856 211.789 481.333 212.598 480.402 213.194C479.472 213.791 478.21 214.126 476.894 214.127Z" fill="#FC8936"/>
<path d="M377.443 332.644H337.142C335.826 332.643 334.564 332.172 333.634 331.333C332.704 330.495 332.18 329.358 332.179 328.173V285.327C332.18 284.141 332.704 283.005 333.634 282.167C334.564 281.328 335.826 280.857 337.142 280.855H377.443C378.759 280.857 380.021 281.328 380.951 282.167C381.882 283.005 382.405 284.141 382.406 285.327V328.173C382.405 329.358 381.882 330.495 380.951 331.333C380.021 332.172 378.759 332.643 377.443 332.644Z" fill="#06C9D9"/>
<path d="M578.354 266.912H538.053C536.737 266.912 535.475 266.667 534.545 266.231C533.615 265.796 533.091 265.206 533.09 264.591V242.344C533.091 241.728 533.615 241.138 534.545 240.703C535.475 240.267 536.737 240.023 538.053 240.022H578.354C579.67 240.023 580.932 240.267 581.862 240.703C582.793 241.138 583.316 241.728 583.317 242.344V264.591C583.316 265.206 582.793 265.796 581.862 266.232C580.932 266.667 579.67 266.912 578.354 266.912Z" fill="#E04D84"/>
<path d="M286.835 319.697H244.921C243.553 319.695 242.241 318.988 241.273 317.73C240.306 316.473 239.761 314.768 239.76 312.99V248.721C239.761 246.943 240.306 245.238 241.273 243.98C242.241 242.723 243.553 242.016 244.921 242.014H286.835C288.203 242.016 289.515 242.723 290.483 243.98C291.451 245.238 291.995 246.943 291.997 248.721V312.99C291.995 314.768 291.451 316.473 290.483 317.73C289.515 318.988 288.203 319.695 286.835 319.697Z" fill="#E04D84"/>
<path d="M377.443 214.127H337.142C335.826 214.126 334.565 213.773 333.634 213.144C332.704 212.515 332.18 211.663 332.179 210.774V178.639C332.18 177.75 332.704 176.898 333.634 176.269C334.565 175.64 335.826 175.287 337.142 175.286H377.443C378.759 175.287 380.021 175.64 380.951 176.269C381.882 176.898 382.405 177.75 382.406 178.639V210.774C382.405 211.663 381.882 212.515 380.951 213.144C380.021 213.773 378.759 214.126 377.443 214.127Z" fill="#FC8936"/>
<path d="M288.025 152.379H245.741C244.954 152.379 244.199 152.064 243.642 151.504C243.086 150.944 242.773 150.184 242.773 149.391C242.773 148.599 243.086 147.839 243.642 147.278C244.199 146.718 244.954 146.403 245.741 146.403H288.025C288.812 146.403 289.566 146.718 290.123 147.278C290.679 147.839 290.992 148.599 290.992 149.391C290.992 150.184 290.679 150.944 290.123 151.504C289.566 152.064 288.812 152.379 288.025 152.379Z" fill="#CCCCCC"/>
<path d="M477.947 152.379H436.544C435.774 152.379 435.035 152.064 434.49 151.504C433.945 150.944 433.639 150.184 433.639 149.391C433.639 148.599 433.945 147.839 434.49 147.278C435.035 146.718 435.774 146.403 436.544 146.403H477.947C478.718 146.403 479.457 146.718 480.002 147.278C480.547 147.839 480.853 148.599 480.853 149.391C480.853 150.184 480.547 150.944 480.002 151.504C479.457 152.064 478.718 152.379 477.947 152.379Z" fill="#CCCCCC"/>
<path d="M407.018 379.454C406.885 379.454 406.757 379.377 406.663 379.24C406.569 379.102 406.516 378.916 406.516 378.723V138.171C406.516 137.977 406.569 137.791 406.663 137.654C406.757 137.517 406.885 137.44 407.018 137.44C407.151 137.44 407.279 137.517 407.373 137.654C407.467 137.791 407.52 137.977 407.52 138.171V378.723C407.52 378.916 407.467 379.102 407.373 379.24C407.279 379.377 407.151 379.454 407.018 379.454Z" fill="#3F3D56"/>
<path d="M376.549 152.379H336.027C335.273 152.379 334.549 152.064 334.016 151.504C333.483 150.944 333.183 150.184 333.183 149.391C333.183 148.599 333.483 147.839 334.016 147.278C334.549 146.718 335.273 146.403 336.027 146.403H376.549C377.303 146.403 378.027 146.718 378.56 147.278C379.093 147.839 379.393 148.599 379.393 149.391C379.393 150.184 379.093 150.944 378.56 151.504C378.027 152.064 377.303 152.379 376.549 152.379Z" fill="#CCCCCC"/>
<path d="M579.407 152.379H538.004C537.234 152.379 536.495 152.064 535.95 151.504C535.405 150.944 535.099 150.184 535.099 149.391C535.099 148.599 535.405 147.839 535.95 147.278C536.495 146.718 537.234 146.403 538.004 146.403H579.407C580.178 146.403 580.917 146.718 581.462 147.278C582.007 147.839 582.313 148.599 582.313 149.391C582.313 150.184 582.007 150.944 581.462 151.504C580.917 152.064 580.178 152.379 579.407 152.379Z" fill="#CCCCCC"/>
<path d="M670.822 152.379H629.419C628.648 152.379 627.909 152.064 627.364 151.504C626.819 150.944 626.513 150.184 626.513 149.391C626.513 148.599 626.819 147.839 627.364 147.278C627.909 146.718 628.648 146.403 629.419 146.403H670.822C671.592 146.403 672.331 146.718 672.876 147.278C673.421 147.839 673.727 148.599 673.727 149.391C673.727 150.184 673.421 150.944 672.876 151.504C672.331 152.064 671.592 152.379 670.822 152.379Z" fill="#CCCCCC"/>
<path d="M200.859 364.679C199.788 364.575 198.753 364.239 197.826 363.696C196.9 363.152 196.105 362.414 195.498 361.533C194.891 360.652 194.486 359.649 194.311 358.596C194.137 357.543 194.198 356.465 194.489 355.438L175.722 338.118L185.645 335.622L204.099 350.462C205.807 351.062 207.234 352.262 208.11 353.835C208.985 355.408 209.248 357.245 208.848 358.997C208.449 360.75 207.415 362.296 205.943 363.343C204.47 364.39 202.661 364.865 200.859 364.679Z" fill="#FFB8B8"/>
<path d="M226.773 492.695H235.75L240.019 458.37H226.772L226.773 492.695Z" fill="#FFB8B8"/>
<path d="M253.061 500.957L224.85 500.958L224.85 490.152L242.161 490.152C245.051 490.151 247.824 491.29 249.868 493.316C251.912 495.343 253.06 498.091 253.061 500.957Z" fill="#2F2E41"/>
<path d="M165.23 486.269L173.904 488.559L186.937 456.478L174.135 453.1L165.23 486.269Z" fill="#FFB8B8"/>
<path d="M188.488 500.96L161.227 493.766L164.031 483.324L180.759 487.738C183.553 488.475 185.936 490.282 187.386 492.762C188.835 495.242 189.232 498.19 188.488 500.96Z" fill="#2F2E41"/>
<path d="M238.163 486.196H224.467C223.602 486.199 222.767 485.881 222.126 485.304C221.486 484.727 221.087 483.934 221.007 483.08L212.692 397.476C212.631 396.849 212.352 396.261 211.902 395.815C211.453 395.368 210.861 395.091 210.227 395.03C209.594 394.968 208.959 395.127 208.431 395.479C207.903 395.83 207.514 396.353 207.332 396.958L183.19 476.948C182.935 477.798 182.359 478.518 181.581 478.957C180.803 479.396 179.885 479.52 179.017 479.304L166.275 476.146C165.831 476.036 165.412 475.839 165.045 475.568C164.677 475.297 164.366 474.956 164.132 474.566C163.897 474.176 163.743 473.743 163.678 473.293C163.612 472.843 163.638 472.385 163.752 471.945C163.96 471.139 184.552 391.353 184.732 390.532C189.398 356.44 194.98 347.304 197.979 342.397C198.227 341.99 198.455 341.617 198.661 341.264C198.918 340.822 200.5 336.441 201.504 333.595C201.635 333.133 201.86 332.701 202.167 332.329C202.474 331.957 202.855 331.653 203.287 331.434C215.888 325.045 230.631 329.468 234.849 330.975C235.549 331.22 236.149 331.682 236.561 332.293C249.216 351.218 243.006 461.129 241.632 482.971C241.575 483.844 241.185 484.664 240.541 485.263C239.896 485.862 239.047 486.195 238.163 486.196Z" fill="#090C44"/>
<path d="M202.817 269.367C212.749 269.367 220.8 261.385 220.8 251.539C220.8 241.693 212.749 233.711 202.817 233.711C192.886 233.711 184.835 241.693 184.835 251.539C184.835 261.385 192.886 269.367 202.817 269.367Z" fill="#FFB8B8"/>
<path d="M188.649 353.609L171.577 336.789C170.409 335.633 169.562 334.198 169.116 332.623C168.67 331.047 168.64 329.385 169.029 327.795L177.294 294.463C177.542 293.465 177.993 292.527 178.621 291.708C179.249 290.889 180.04 290.207 180.944 289.704C181.849 289.2 182.848 288.886 183.88 288.781C184.912 288.675 185.955 288.781 186.944 289.092C188.829 289.694 190.403 291 191.334 292.734C192.265 294.467 192.478 296.492 191.929 298.379L183.228 327.701L197.298 342.681L188.649 353.609Z" fill="#F59574"/>
<path d="M200.912 336.331L200.783 336.207C200.541 335.974 176.581 312.703 179.682 291.185C181.008 281.981 188.519 276.1 201.403 274.177C206.136 273.48 210.964 274.501 215 277.051C219.035 279.6 222.006 283.509 223.368 288.057L236.107 331.235L200.912 336.331Z" fill="#F38964"/>
<path d="M280.221 296.208C279.769 297.177 279.109 298.035 278.287 298.724C277.464 299.412 276.5 299.913 275.461 300.192C274.422 300.471 273.334 300.521 272.273 300.337C271.213 300.154 270.206 299.743 269.323 299.132L246.532 310.844L247.539 300.895L267.744 288.498C268.878 287.096 270.49 286.155 272.276 285.853C274.063 285.551 275.899 285.909 277.437 286.859C278.974 287.809 280.107 289.286 280.62 291.009C281.133 292.732 280.991 294.582 280.221 296.208Z" fill="#FFB8B8"/>
<path d="M266.834 303.613L244.616 313.132C243.138 313.761 241.521 314.002 239.921 313.831C238.321 313.661 236.792 313.086 235.481 312.161L207.229 292.091C206.385 291.492 205.675 290.728 205.142 289.846C204.608 288.963 204.263 287.982 204.128 286.963C203.992 285.943 204.07 284.907 204.354 283.918C204.639 282.929 205.126 282.008 205.784 281.213C207.048 279.702 208.857 278.737 210.826 278.525C212.795 278.313 214.77 278.868 216.333 280.075L240.559 298.978L259.814 291.592L266.834 303.613Z" fill="#F59574"/>
<path d="M205.799 257.252C208.017 254.496 212.162 254.348 215.209 252.53C219.2 250.149 220.851 244.828 219.564 240.389C218.278 235.95 214.485 232.491 210.135 230.837C205.786 229.182 200.947 229.162 196.359 229.961C189.528 231.152 182.803 234.313 178.637 239.811C174.47 245.308 173.41 253.36 177.186 259.128C178.921 261.779 181.6 263.967 182.293 267.052C183.202 271.102 180.337 275.009 177.267 277.829C173.77 281.042 169.758 283.733 166.694 287.354C163.63 290.976 161.586 295.924 162.985 300.443C164.156 304.23 167.565 307.019 171.303 308.416C175.041 309.813 179.112 310.015 183.106 310.093C186.984 310.168 191.104 310.074 194.371 308.001C197.868 305.782 199.736 301.571 199.874 297.456C200.012 293.342 198.625 289.31 196.766 285.629C195.658 283.434 194.37 281.308 193.634 278.965C192.898 276.622 192.77 273.964 193.949 271.806C195.188 269.538 197.696 268.17 200.249 267.673C200.381 267.647 200.522 267.624 200.668 267.603C201.395 267.51 202.095 267.271 202.725 266.902C203.356 266.533 203.905 266.041 204.338 265.455C204.772 264.87 205.081 264.203 205.247 263.496C205.413 262.789 205.433 262.056 205.305 261.341C205.014 259.733 205.04 258.195 205.799 257.252Z" fill="#2F2E41"/>
<path d="M636.936 493.591H627.96L623.69 459.265L636.937 459.266L636.936 493.591Z" fill="#A0616A"/>
<path d="M621.548 491.048H638.859V501.854H610.649C610.649 500.435 610.931 499.029 611.478 497.718C612.026 496.407 612.829 495.216 613.841 494.213C614.853 493.209 616.055 492.413 617.377 491.87C618.7 491.327 620.117 491.048 621.548 491.048Z" fill="#2F2E41"/>
<path d="M702.064 483.51L693.9 487.207L675.63 457.745L687.68 452.288L702.064 483.51Z" fill="#A0616A"/>
<path d="M687.002 487.536L702.748 480.405L707.277 490.234L681.616 501.854C681.022 500.563 680.689 499.169 680.638 497.751C680.587 496.333 680.818 494.919 681.318 493.589C681.818 492.259 682.578 491.04 683.553 490.002C684.528 488.963 685.7 488.125 687.002 487.536Z" fill="#2F2E41"/>
<path d="M675.925 377.855C676.785 377.214 677.492 376.393 677.998 375.451C678.503 374.508 678.794 373.468 678.85 372.402C678.906 371.337 678.725 370.272 678.321 369.283C677.917 368.294 677.299 367.404 676.511 366.678L687.063 342.942L673.658 345.194L665.693 367.389C664.55 368.783 663.961 370.544 664.04 372.339C664.119 374.133 664.859 375.837 666.12 377.128C667.381 378.418 669.076 379.204 670.883 379.338C672.69 379.472 674.484 378.945 675.925 377.855Z" fill="#A0616A"/>
<path d="M636.364 484.54H627.789C626.957 484.537 626.157 484.224 625.548 483.662C624.939 483.101 624.566 482.332 624.503 481.51L619.826 357.706C619.792 357.232 619.862 356.756 620.032 356.311C620.202 355.866 620.468 355.464 620.812 355.132C621.155 354.799 621.568 354.546 622.02 354.388C622.473 354.23 622.955 354.173 623.432 354.219L673.025 359.44C673.828 359.518 674.575 359.886 675.124 360.474C675.672 361.062 675.983 361.829 675.999 362.629L677.038 417.241C677.044 417.537 677.102 417.83 677.209 418.107L697.552 470.408C697.709 470.812 697.784 471.243 697.771 471.676C697.759 472.109 697.66 472.535 697.48 472.93C697.3 473.324 697.042 473.679 696.723 473.974C696.403 474.269 696.027 474.498 695.617 474.648L686.928 477.822C686.173 478.098 685.343 478.09 684.593 477.801C683.844 477.511 683.227 476.96 682.859 476.251L657.869 428.076C657.732 427.814 657.633 427.535 657.573 427.246L653.304 406.854C653.18 406.262 652.848 405.734 652.367 405.364C651.886 404.993 651.287 404.805 650.679 404.832C650.07 404.859 649.491 405.101 649.046 405.513C648.601 405.925 648.318 406.481 648.249 407.081L639.637 481.645C639.545 482.442 639.161 483.177 638.557 483.711C637.953 484.245 637.173 484.54 636.364 484.54Z" fill="#FFC0AA"/>
<path d="M640.633 260.904C650.565 260.904 658.616 252.922 658.616 243.076C658.616 233.229 650.565 225.248 640.633 225.248C630.702 225.248 622.651 233.229 622.651 243.076C622.651 252.922 630.702 260.904 640.633 260.904Z" fill="#A0616A"/>
<path d="M652.966 369.027C640.771 368.893 628.867 365.318 618.648 358.72L618.473 358.601L625.369 278.968C625.606 276.274 626.819 273.756 628.784 271.879C630.749 270.003 633.333 268.896 636.058 268.762C644.972 268.355 656.947 268.868 663.357 273.601C673.044 280.754 677.712 291.525 676.166 303.153C672.959 327.265 676.592 359.792 677.017 363.421L677.048 363.683L676.806 363.793C669.338 367.237 661.202 369.024 652.966 369.027Z" fill="#151976"/>
<path d="M676.934 363.556C676.427 363.555 675.926 363.45 675.462 363.247C674.998 363.045 674.582 362.749 674.239 362.379L670.305 358.124C669.88 357.662 669.583 357.099 669.44 356.489C669.298 355.88 669.316 355.244 669.493 354.643L678.463 324.546L664.816 296.133C664.178 294.803 664.022 293.296 664.374 291.865C664.683 290.609 665.37 289.476 666.342 288.615C667.315 287.754 668.528 287.205 669.821 287.041C671.115 286.877 672.428 287.106 673.588 287.697C674.747 288.288 675.699 289.214 676.317 290.352L694.837 320.144C695.589 321.352 696.031 322.725 696.122 324.143C696.214 325.56 695.954 326.978 695.364 328.272L680.274 361.419C680.026 361.967 679.644 362.445 679.162 362.81C678.681 363.175 678.115 363.415 677.517 363.51C677.324 363.54 677.129 363.556 676.934 363.556Z" fill="#2328B0"/>
<path d="M550.182 306.063C551.046 306.7 552.04 307.141 553.094 307.356C554.149 307.571 555.238 307.554 556.285 307.306C557.332 307.059 558.311 306.587 559.154 305.923C559.997 305.26 560.683 304.421 561.164 303.466L587.109 306.802L581.147 294.689L557.422 293.378C555.751 292.684 553.881 292.621 552.166 293.203C550.452 293.784 549.012 294.969 548.119 296.532C547.227 298.096 546.944 299.93 547.324 301.686C547.705 303.443 548.721 305 550.182 306.063Z" fill="#A0616A"/>
<path d="M607.372 312.679C606.92 312.679 606.469 312.648 606.021 312.586L565.203 306.974C564.536 306.883 563.902 306.629 563.359 306.235C562.816 305.84 562.38 305.318 562.091 304.715C561.998 304.521 561.92 304.32 561.858 304.113C561.7 303.578 561.656 303.015 561.728 302.461C561.801 301.908 561.988 301.375 562.279 300.897L565.657 295.345C566.02 294.751 566.531 294.26 567.141 293.919C567.751 293.577 568.439 293.397 569.139 293.395H569.144L604.724 293.435L631.297 269.832C632.533 268.736 634.112 268.096 635.768 268.018C637.222 267.951 638.663 268.323 639.899 269.084C641.136 269.845 642.111 270.96 642.696 272.282C643.28 273.604 643.447 275.071 643.174 276.488C642.901 277.906 642.201 279.208 641.166 280.224L614.651 309.46C613.733 310.473 612.611 311.283 611.357 311.838C610.103 312.392 608.745 312.679 607.372 312.679Z" fill="#2328B0"/>
<path d="M642.678 258.936C644.321 255.166 645.712 250.144 642.56 247.478C640.731 245.932 638.098 245.929 635.703 245.736C628.954 245.194 622.008 242.116 618.709 236.254C615.411 230.392 617.253 221.675 623.476 219.03C627.67 217.248 632.479 218.462 636.87 219.696L650.053 223.403C653.97 224.504 658.082 225.718 660.902 228.63C665.4 233.274 665.064 241.123 661.492 246.5C657.919 251.876 652.54 257.483 646.382 259.524L642.678 258.936Z" fill="#2F2E41"/>
<path d="M721.969 501.954H115.172C115.043 501.955 114.916 501.942 114.796 501.917C114.677 501.892 114.569 501.855 114.478 501.809C114.387 501.763 114.314 501.708 114.265 501.647C114.216 501.587 114.19 501.522 114.19 501.456C114.19 501.391 114.216 501.326 114.265 501.266C114.314 501.205 114.387 501.15 114.478 501.104C114.569 501.058 114.677 501.021 114.796 500.996C114.916 500.971 115.043 500.958 115.172 500.958H721.969C722.098 500.958 722.225 500.971 722.344 500.996C722.463 501.021 722.572 501.058 722.663 501.104C722.754 501.15 722.826 501.205 722.876 501.266C722.925 501.326 722.951 501.391 722.951 501.456C722.951 501.522 722.925 501.587 722.876 501.647C722.826 501.708 722.754 501.763 722.663 501.809C722.572 501.855 722.463 501.892 722.344 501.917C722.225 501.942 722.098 501.955 721.969 501.954Z" fill="#3F3D56"/>
<path d="M578.703 214.502H537.581C536.238 214.501 534.951 214.164 534.001 213.565C533.052 212.965 532.518 212.153 532.516 211.306V180.679C532.518 179.831 533.052 179.019 534.001 178.42C534.951 177.82 536.238 177.483 537.581 177.482H578.703C580.045 177.483 581.333 177.82 582.282 178.42C583.231 179.019 583.765 179.831 583.767 180.679V211.306C583.765 212.153 583.231 212.965 582.282 213.565C581.333 214.164 580.045 214.501 578.703 214.502Z" fill="#06C9D9" fill-opacity="0.36"/>
<defs>
<radialGradient id="paint0_radial_320_3" cx="0" cy="0" r="1" gradientUnits="userSpaceOnUse" gradientTransform="translate(260.774 329.055) rotate(-15.9777) scale(646.835 264.536)">
<stop stop-color="#2D7C08"/>
<stop offset="1" stop-color="#89F457"/>
</radialGradient>
<linearGradient id="paint1_linear_320_3" x1="441" y1="0" x2="441" y2="566" gradientUnits="userSpaceOnUse">
<stop stop-color="#2328B0"/>
<stop offset="1" stop-color="#090C44"/>
</linearGradient>
<linearGradient id="paint2_linear_320_3" x1="882" y1="566" x2="367.461" y2="-235.808" gradientUnits="userSpaceOnUse">
<stop stop-color="#F9A826"/>
<stop offset="1" stop-color="#FE5621"/>
</linearGradient>
</defs>
</svg>
